<svg width="80" height="53" viewBox="0 0 80 53" fill="none" xmlns="http://www.w3.org/2000/svg">
<g clip-path="url(#clip0_3434_484)">
<path d="M40.0387 47.5335C38.4124 47.5335 36.7861 47.5335 35.1597 47.5335C33.1282 47.5335 31.772 46.1862 31.7747 44.1707C31.7747 42.7379 31.7829 41.3051 31.772 39.8723C31.7666 39.1586 31.9287 38.501 32.361 37.9236C32.5042 37.7338 32.4528 37.5895 32.361 37.4131C31.8099 36.3465 30.9805 35.4938 30.1565 34.6384C28.7058 33.128 27.5145 31.4627 26.8634 29.4525C26.2258 27.4797 26.1907 25.4776 26.5311 23.454C26.8634 21.4732 27.4955 19.602 28.6788 17.9501C30.9913 14.7182 34.1332 12.7268 38.0909 12.2028C43.367 11.5025 47.7488 13.2213 51.0393 17.4128C52.5737 19.3695 53.3896 21.6523 53.7057 24.0982C54.1946 27.8807 52.8709 31.0804 50.4206 33.9059C49.4265 35.0527 48.4755 36.2262 47.8299 37.6135C47.7191 37.8541 47.7542 38.0332 47.8461 38.2791C48.0244 38.7416 48.1973 39.2361 48.2135 39.72C48.2594 41.2784 48.2405 42.8368 48.227 44.3953C48.2135 46.1087 46.8087 47.5121 45.0716 47.5282C43.394 47.5469 41.7163 47.5308 40.0414 47.5308L40.0387 47.5335ZM40.1062 36.5657C41.4786 36.5657 42.851 36.5577 44.2233 36.571C44.4935 36.571 44.6232 36.4828 44.7339 36.2396C44.9581 35.7504 45.1797 35.2425 45.4958 34.8094C46.3981 33.5825 47.3409 32.3822 48.281 31.1847C50.0667 28.9072 50.8502 26.3998 50.1532 23.5262C49.6318 21.3743 48.6754 19.455 46.9897 17.9688C43.1481 14.5766 37.2156 14.5498 33.293 17.8592C31.302 19.5406 30.2322 21.6871 29.8432 24.2185C29.5622 26.055 29.7 27.8272 30.5483 29.5086C31.1507 30.7035 32.0044 31.7113 32.9445 32.6576C34.0278 33.7482 34.9842 34.9324 35.6109 36.3465C35.7055 36.5577 35.8405 36.571 36.0296 36.571C37.3885 36.5657 38.7501 36.571 40.1089 36.571L40.1062 36.5657ZM40.0036 39.9873C38.5285 39.9873 37.0562 39.9953 35.5812 39.9819C35.2732 39.9793 35.1597 40.0568 35.1652 40.3776C35.1814 41.5083 35.1814 42.6417 35.1652 43.7724C35.1597 44.0852 35.257 44.1787 35.5731 44.1761C38.5204 44.1654 41.4705 44.1654 44.4178 44.1761C44.7231 44.1761 44.842 44.1066 44.8366 43.7804C44.8177 42.6497 44.8177 41.5163 44.8366 40.3856C44.842 40.0675 44.7393 39.9819 44.426 39.9846C42.9509 39.998 41.4786 39.99 40.0036 39.99V39.9873Z" fill="#3EB48A"/>
<path d="M21.301 27.1483C20.2825 27.1483 19.6477 26.7553 19.4018 25.9748C19.0669 24.9109 19.8287 23.8336 20.9525 23.7988C21.2686 23.7882 21.5928 23.7721 21.9007 23.8202C22.7652 23.9539 23.3893 24.7237 23.3352 25.5444C23.2758 26.4319 22.622 27.0841 21.7197 27.1483C21.582 27.159 21.4415 27.1483 21.301 27.1483Z" fill="#3EB48A"/>
<path d="M58.739 23.7934C59.4441 23.7346 60.0816 23.9699 60.4652 24.6676C61.0434 25.7154 60.3842 26.9985 59.1874 27.1322C58.7903 27.1776 58.3689 27.1696 57.9798 27.0894C57.0964 26.913 56.5994 26.1592 56.6966 25.2369C56.7831 24.4323 57.4801 23.8148 58.3283 23.7934C58.4418 23.7908 58.5553 23.7934 58.739 23.7934Z" fill="#3EB48A"/>
<path d="M41.7646 7.43666C41.77 8.50056 41.3864 9.10202 40.5381 9.36398C39.5413 9.67139 38.4715 8.95767 38.3958 7.93119C38.3769 7.66922 38.3769 7.40458 38.385 7.13994C38.4147 6.16425 39.1171 5.46657 40.0681 5.4639C41.0136 5.45855 41.7457 6.19633 41.7673 7.17469C41.7673 7.26291 41.7673 7.35112 41.7673 7.43933L41.7646 7.43666Z" fill="#3EB48A"/>
<path d="M28.6464 12.5022C28.6383 13.3068 28.325 13.8147 27.7252 14.1195C27.0958 14.4376 26.4609 14.3814 25.9071 13.9377C25.3533 13.4966 24.8859 12.9887 24.9157 12.2082C24.9643 10.9358 26.3583 10.1552 27.4497 10.8235C28.1115 11.2298 28.641 11.7698 28.6464 12.5022Z" fill="#3EB48A"/>
<path d="M53.3869 10.5856C54.0785 10.6097 54.608 10.9117 54.9106 11.5319C55.2212 12.1654 55.1429 12.7883 54.6944 13.3309C54.4567 13.6169 54.1757 13.8976 53.8597 14.0874C53.2059 14.4777 52.3873 14.3467 51.8605 13.8334C51.3229 13.3095 51.169 12.5343 51.5418 11.8634C51.947 11.1363 52.6332 10.5642 53.3842 10.5883L53.3869 10.5856Z" fill="#3EB48A"/>
<path d="M19.8098 4.20765H18.6427C16.3653 4.20765 14.839 4.62199 14.0609 5.45333C13.2829 6.28467 12.8939 8.00616 12.8939 10.6205V17.3968C12.8939 20.3881 12.4724 22.5212 11.6323 23.7936C10.7921 25.066 9.31167 25.9829 7.19638 26.5443C9.33058 27.0682 10.8137 27.9637 11.6458 29.2334C12.4778 30.5032 12.8939 32.639 12.8939 35.6436V42.4467C12.8939 45.053 13.2883 46.7638 14.0744 47.5764C14.8606 48.389 16.4031 48.7953 18.6994 48.7953H19.8098V53.0028H18.586C16.5409 53.0028 14.9416 52.8959 13.7854 52.6794C12.6291 52.4629 11.6539 52.1127 10.8596 51.6235C9.81685 50.9846 9.08474 50.0758 8.6579 48.8942C8.23106 47.7127 8.01764 45.7346 8.01764 42.9599V36.1167C8.01764 33.342 7.50165 31.388 6.47238 30.2519C5.4431 29.1158 3.68981 28.5491 1.21523 28.5491C1.08285 28.5491 0.880238 28.5598 0.604683 28.5785C0.329129 28.5972 0.126515 28.6079 -0.00585938 28.6079V24.4004C0.145426 24.4004 0.361547 24.4111 0.645206 24.4298C0.928865 24.4485 1.13688 24.4592 1.26926 24.4592C3.72493 24.4592 5.46471 23.8952 6.48318 22.7645C7.50165 21.6337 8.01224 19.6984 8.01224 16.9531V10.0645C8.01224 7.30046 8.22566 5.33304 8.6525 4.16756C9.07934 2.9994 9.81145 2.09856 10.8542 1.46503C11.7052 0.941098 12.7345 0.569534 13.9367 0.344992C15.1388 0.12045 16.7435 0.00817871 18.7508 0.00817871H19.8044V4.20765H19.8098Z" fill="black"/>
<path d="M60.1895 48.7952H61.3565C63.6339 48.7952 65.1602 48.3808 65.9383 47.5495C66.7163 46.7182 67.1053 44.9967 67.1053 42.3824V35.606C67.1053 32.6148 67.5268 30.4816 68.3669 29.2092C69.2071 27.9368 70.6875 27.0199 72.8028 26.4586C70.6686 25.9346 69.1855 25.0391 68.3534 23.7694C67.5214 22.4997 67.1053 20.3638 67.1053 17.3593V10.5562C67.1053 7.94987 66.7109 6.23907 65.9248 5.42644C65.1386 4.61381 63.5961 4.20749 61.2998 4.20749H60.1895V0H61.4132C63.4583 0 65.0576 0.106925 66.2138 0.323448C67.3701 0.539971 68.3453 0.89015 69.1396 1.37933C70.1824 2.01821 70.9145 2.92707 71.3413 4.10859C71.7681 5.29011 71.9816 7.26822 71.9816 10.0429V16.8861C71.9816 19.6608 72.4976 21.6149 73.5268 22.7509C74.5561 23.887 76.3094 24.4537 78.784 24.4537C78.9164 24.4537 79.119 24.443 79.3945 24.4243C79.6701 24.4056 79.8727 24.3949 80.0051 24.3949V28.6024C79.8538 28.6024 79.6377 28.5917 79.354 28.573C79.0703 28.5543 78.8623 28.5436 78.73 28.5436C76.2743 28.5436 74.5345 29.1076 73.516 30.2384C72.4949 31.3691 71.987 33.3044 71.987 36.0497V42.9384C71.987 45.7024 71.7736 47.6698 71.3467 48.8353C70.9199 50.0034 70.1878 50.9043 69.145 51.5378C68.294 52.0617 67.2647 52.4333 66.0625 52.6578C64.8604 52.8824 63.2557 52.9946 61.2484 52.9946H60.1949V48.7872L60.1895 48.7952Z" fill="black"/>
</g>
<defs>
<clipPath id="clip0_3434_484">
<rect width="80" height="53" fill="white"/>
</clipPath>
</defs>
</svg>
